<svg width="187" height="59" viewBox="0 0 187 59" fill="none" xmlns="http://www.w3.org/2000/svg">
<path d="M88.344 18.858C87.052 18.9033 86.1453 19.028 85.624 19.232C85.1253 19.4133 84.774 19.776 84.57 20.32C84.366 20.864 84.1847 21.85 84.026 23.278L81.17 23.482C81.2153 23.0287 81.2833 22.0427 81.374 20.524C81.4873 19.0053 81.5553 17.5547 81.578 16.172L81.952 15.798L85.352 16.172H95.96L99.428 15.798L99.802 16.172C99.8247 17.6 99.8813 19.0393 99.972 20.49C100.063 21.918 100.119 22.8473 100.142 23.278L97.286 23.482C97.1047 21.9407 96.912 20.898 96.708 20.354C96.5267 19.7873 96.198 19.4133 95.722 19.232C95.246 19.028 94.396 18.9033 93.172 18.858C93.0813 20.4447 93.002 22.666 92.934 25.522C92.866 28.3553 92.832 30.9847 92.832 33.41C92.832 34.2487 92.968 34.8493 93.24 35.212C93.5347 35.552 94.0107 35.722 94.668 35.722C95.144 35.722 95.5407 35.7107 95.858 35.688C96.1753 35.6653 96.3793 35.6427 96.47 35.62L96.606 35.79L96.3 38.136C95.8467 38.1133 95.0193 38.0793 93.818 38.034C92.6393 38.0113 91.4947 38 90.384 38C89.5907 38 88.548 38.0227 87.256 38.068C85.964 38.136 85.114 38.1813 84.706 38.204L84.978 35.96C86.0207 35.8693 86.7573 35.7333 87.188 35.552C87.6413 35.348 87.9473 35.0307 88.106 34.6C88.2647 34.1467 88.344 33.41 88.344 32.39V18.858ZM101.554 36.028C102.211 35.9827 102.653 35.8013 102.88 35.484C103.129 35.1667 103.254 34.5773 103.254 33.716V26.984C103.254 26.1907 103.152 25.658 102.948 25.386C102.766 25.114 102.392 24.978 101.826 24.978L101.18 25.012L101.01 24.774L101.18 23.006C102.426 22.8247 103.684 22.6093 104.954 22.36C106.246 22.1107 107.073 21.952 107.436 21.884L107.742 22.19C107.696 22.3713 107.628 22.7907 107.538 23.448C107.47 24.1053 107.424 24.74 107.402 25.352L107.606 25.488C108.308 24.4453 109.079 23.6293 109.918 23.04C110.779 22.428 111.595 22.122 112.366 22.122C112.638 22.122 112.887 22.1447 113.114 22.19C113.34 22.2127 113.488 22.2353 113.556 22.258L113.692 22.53C113.624 22.9153 113.51 23.7653 113.352 25.08C113.193 26.372 113.08 27.596 113.012 28.752L110.768 28.888C110.768 27.8 110.7 27.086 110.564 26.746C110.45 26.3833 110.201 26.202 109.816 26.202C109.453 26.202 109.068 26.338 108.66 26.61C108.274 26.8593 107.912 27.2107 107.572 27.664C107.526 28.276 107.458 29.3073 107.368 30.758C107.3 32.186 107.254 33.3307 107.232 34.192C107.232 34.7813 107.322 35.1893 107.504 35.416C107.708 35.6427 108.059 35.756 108.558 35.756C108.92 35.756 109.272 35.7447 109.612 35.722C109.952 35.6767 110.178 35.6427 110.292 35.62L110.394 35.824L110.02 38.136C109.702 38.1133 109.102 38.0793 108.218 38.034C107.356 38.0113 106.472 38 105.566 38C104.704 38 103.832 38.0113 102.948 38.034C102.086 38.0793 101.531 38.1133 101.282 38.136L101.554 36.028ZM115.789 38.374C114.973 38.374 114.35 38.1473 113.919 37.694C113.488 37.218 113.273 36.5833 113.273 35.79C113.273 34.974 113.522 34.3053 114.021 33.784C114.52 33.2627 115.188 33.002 116.027 33.002C116.82 33.002 117.444 33.24 117.897 33.716C118.35 34.1693 118.577 34.7813 118.577 35.552C118.577 36.3907 118.316 37.0707 117.795 37.592C117.296 38.1133 116.628 38.374 115.789 38.374ZM128.378 33.274C128.378 33.9087 128.424 34.362 128.514 34.634C128.605 34.906 128.798 35.0873 129.092 35.178C129.387 35.2687 129.874 35.314 130.554 35.314C132.028 35.314 133.093 35.2233 133.75 35.042C134.408 34.8607 134.884 34.5207 135.178 34.022C135.473 33.5007 135.7 32.6393 135.858 31.438L138.714 31.2L138.986 31.54C138.918 31.9027 138.771 32.7073 138.544 33.954C138.34 35.2007 138.17 36.504 138.034 37.864L137.694 38.238C136.992 38.2153 135.484 38.17 133.172 38.102C130.883 38.034 128.866 38 127.12 38C125.851 38 124.627 38.0453 123.448 38.136C122.292 38.2267 121.544 38.2947 121.204 38.34L121.442 36.028C122.394 35.892 123.04 35.62 123.38 35.212C123.72 34.804 123.89 34.1013 123.89 33.104L123.924 20.218C123.924 19.4927 123.845 19.0053 123.686 18.756C123.55 18.5067 123.267 18.382 122.836 18.382C122.61 18.382 122.394 18.3933 122.19 18.416C122.009 18.4387 121.884 18.45 121.816 18.45L121.578 18.144L121.85 16.07C122.258 16.0927 123.063 16.1153 124.264 16.138C125.466 16.1607 126.746 16.172 128.106 16.172C132.912 16.172 136.357 16.036 138.442 15.764L138.714 16.138C138.646 16.478 138.522 17.2713 138.34 18.518C138.159 19.742 138.023 21.0113 137.932 22.326L134.838 22.53C134.838 22.4393 134.85 22.258 134.872 21.986C134.895 21.714 134.906 21.442 134.906 21.17C134.906 20.5127 134.804 20.048 134.6 19.776C134.419 19.4813 134.034 19.2887 133.444 19.198C132.878 19.0847 131.926 19.028 130.588 19.028C130.022 19.028 129.625 19.0507 129.398 19.096C129.172 19.1413 129.013 19.2433 128.922 19.402C128.854 19.538 128.82 19.7873 128.82 20.15L128.582 25.42L131.744 25.454C132.22 25.454 132.923 25.42 133.852 25.352C134.782 25.2613 135.394 25.2047 135.688 25.182L135.96 25.488L135.484 28.412C135.19 28.3893 134.612 28.3667 133.75 28.344C132.889 28.3213 131.982 28.31 131.03 28.31C130.532 28.31 129.67 28.378 128.446 28.514C128.401 30.1687 128.378 31.7553 128.378 33.274ZM145.958 24.706C145.142 24.774 144.518 24.91 144.088 25.114C143.68 25.2953 143.374 25.5787 143.17 25.964C142.988 26.3493 142.864 26.9273 142.796 27.698L141.062 27.868C141.107 27.4827 141.175 26.678 141.266 25.454C141.356 24.23 141.413 23.1533 141.436 22.224L141.674 21.986L146.094 22.258L153.982 22.36L154.424 23.38C152.61 25.7827 150.888 28.1513 149.256 30.486C147.646 32.798 146.434 34.5887 145.618 35.858L149.188 35.552C150.162 35.4387 150.899 35.076 151.398 34.464C151.896 33.852 152.248 32.8773 152.452 31.54L154.22 31.37C154.197 31.5513 154.14 31.9593 154.05 32.594C153.959 33.2287 153.868 34.0447 153.778 35.042C153.687 36.0167 153.642 36.878 153.642 37.626L153.132 38.17L142.966 37.932L141.062 38.136L140.45 37.014L149.018 24.502L145.958 24.706ZM163.366 38.408C161.938 38.408 160.68 38.0907 159.592 37.456C158.504 36.7987 157.665 35.8807 157.076 34.702C156.486 33.5233 156.192 32.1633 156.192 30.622C156.192 28.8993 156.532 27.3807 157.212 26.066C157.914 24.7513 158.889 23.7313 160.136 23.006C161.382 22.258 162.81 21.884 164.42 21.884C166.618 21.884 168.352 22.5867 169.622 23.992C170.914 25.3747 171.56 27.2673 171.56 29.67C171.56 31.3927 171.22 32.9113 170.54 34.226C169.86 35.5407 168.896 36.572 167.65 37.32C166.403 38.0453 164.975 38.408 163.366 38.408ZM164.08 35.79C166.006 35.79 166.97 34.2713 166.97 31.234C166.97 29.1033 166.675 27.5053 166.086 26.44C165.519 25.352 164.692 24.808 163.604 24.808C162.652 24.808 161.926 25.1933 161.428 25.964C160.952 26.7347 160.714 27.868 160.714 29.364C160.714 31.4947 160.997 33.104 161.564 34.192C162.153 35.2573 162.992 35.79 164.08 35.79ZM173.903 36.028C174.561 35.9827 175.003 35.8013 175.229 35.484C175.479 35.1667 175.603 34.5773 175.603 33.716V26.984C175.603 26.1907 175.501 25.658 175.297 25.386C175.116 25.114 174.742 24.978 174.175 24.978L173.529 25.012L173.359 24.774L173.529 23.006C174.776 22.8247 176.034 22.6093 177.303 22.36C178.595 22.1107 179.423 21.952 179.785 21.884L180.091 22.19C180.046 22.3713 179.978 22.7907 179.887 23.448C179.819 24.1053 179.774 24.74 179.751 25.352L179.955 25.488C180.658 24.4453 181.429 23.6293 182.267 23.04C183.129 22.428 183.945 22.122 184.715 22.122C184.987 22.122 185.237 22.1447 185.463 22.19C185.69 22.2127 185.837 22.2353 185.905 22.258L186.041 22.53C185.973 22.9153 185.86 23.7653 185.701 25.08C185.543 26.372 185.429 27.596 185.361 28.752L183.117 28.888C183.117 27.8 183.049 27.086 182.913 26.746C182.8 26.3833 182.551 26.202 182.165 26.202C181.803 26.202 181.417 26.338 181.009 26.61C180.624 26.8593 180.261 27.2107 179.921 27.664C179.876 28.276 179.808 29.3073 179.717 30.758C179.649 32.186 179.604 33.3307 179.581 34.192C179.581 34.7813 179.672 35.1893 179.853 35.416C180.057 35.6427 180.409 35.756 180.907 35.756C181.27 35.756 181.621 35.7447 181.961 35.722C182.301 35.6767 182.528 35.6427 182.641 35.62L182.743 35.824L182.369 38.136C182.052 38.1133 181.451 38.0793 180.567 38.034C179.706 38.0113 178.822 38 177.915 38C177.054 38 176.181 38.0113 175.297 38.034C174.436 38.0793 173.881 38.1133 173.631 38.136L173.903 36.028Z" fill="black"/>
<path d="M63.7566 7.8624C62.095 6.32088 60.1222 5.09803 57.9509 4.26373C55.7796 3.42942 53.4523 3 51.102 3C48.7517 3 46.4244 3.42942 44.2531 4.26373C42.0817 5.09803 40.109 6.32088 38.4474 7.8624L34.9991 11.0601L31.5508 7.8624C28.1946 4.75009 23.6427 3.00161 18.8963 3.00161C14.1499 3.00161 9.5979 4.75009 6.2417 7.8624C2.88549 10.9747 1 15.1959 1 19.5974C1 23.9988 2.88549 28.22 6.2417 31.3323L9.68998 34.5301L34.9991 58L60.3083 34.5301L63.7566 31.3323C65.4189 29.7915 66.7376 27.9621 67.6372 25.9486C68.5369 23.9351 69 21.7769 69 19.5974C69 17.4178 68.5369 15.2597 67.6372 13.2461C66.7376 11.2326 65.4189 9.4032 63.7566 7.8624Z" fill="black" stroke="black" stroke-width="2" stroke-linecap="round" stroke-linejoin="round"/>
</svg>
