<svg width="71" height="67" viewBox="0 0 71 67" fill="none" xmlns="http://www.w3.org/2000/svg">
<rect width="71" height="67" rx="7" fill="black"/>
<path fill-rule="evenodd" clip-rule="evenodd" d="M36.8241 43.4724L31.5158 32.0147L36.5208 21.3165C36.6155 21.1266 36.5587 21 36.407 21H33.3547C33.1674 21 33.1097 21.1028 33.0169 21.268L33.0134 21.2742C32.6996 22.0245 32.3816 22.7778 32.0627 23.533C31.2067 25.5603 30.3453 27.6008 29.5441 29.6302H29.5062C28.6697 27.551 27.7923 25.506 26.9115 23.4532C26.5946 22.7145 26.2771 21.9748 25.9611 21.232C25.9041 21.0422 25.8094 21 25.6198 21H22.359C22.2263 21 22.1126 21.1476 22.2263 21.3165L27.2502 32.3733L22.0556 43.4936C21.9609 43.6202 21.9798 43.789 22.1694 43.789H25.3165C25.4681 43.789 25.5629 43.7256 25.6577 43.5568C26.8711 40.7716 28.1223 37.6908 29.2598 34.8633H29.2977C30.5679 37.8596 31.8001 40.7504 33.0134 43.5358C33.1083 43.7468 33.203 43.81 33.4116 43.81H36.7104C36.862 43.81 36.9189 43.6412 36.8241 43.4724ZM37.9805 35.4331C37.9805 30.5164 40.8243 26.6761 45.4879 26.6761C45.8861 26.6761 46.0946 26.6761 46.4737 26.7183V21.232C46.4737 21.1054 46.5686 21.021 46.6633 21.021H49.7157C49.8674 21.021 49.9053 21.0844 49.9053 21.1898V40.4762C49.9053 41.0458 49.9053 41.7633 50 42.5441C50 42.6917 50 42.7129 49.8862 42.7761C48.2937 43.6202 46.6254 44 45.0329 44C40.919 44 37.9805 41.1724 37.9805 35.4331ZM46.4737 30.0312C46.1894 29.8834 45.8292 29.8202 45.3742 29.8202C42.9855 29.8202 41.393 31.8669 41.393 35.2643C41.393 39.1467 43.0234 40.7082 45.1467 40.7082C45.6017 40.7082 46.0946 40.645 46.4548 40.4762V30.0312H46.4737Z" fill="#D5C7C7"/>
</svg>
